<svg xmlns="http://www.w3.org/2000/svg" xmlns:xlink="http://www.w3.org/1999/xlink" viewBox="0,0,256,256" width="50px" height="50px" fill-rule="nonzero"><g fill="#ff8e25" fill-rule="nonzero" stroke="none" stroke-width="1" stroke-linecap="butt" stroke-linejoin="miter" stroke-miterlimit="10" stroke-dasharray="" stroke-dashoffset="0" font-family="none" font-weight="none" font-size="none" text-anchor="none" style="mix-blend-mode: normal"><g transform="scale(5.12,5.12)"><path d="M25,0c-1.53125,0 -2.98828,0.33203 -4.125,1.15625c-1.13672,0.82422 -1.875,2.19141 -1.875,3.84375v4.6875c-0.05859,0.19531 -0.05859,0.39844 0,0.59375v17.40625c-3.57031,2.07813 -6,5.89063 -6,10.3125c0,6.61719 5.38281,12 12,12c6.61719,0 12,-5.38281 12,-12c0,-4.42187 -2.42969,-8.23437 -6,-10.3125v-0.6875h3c0.35938,0.00391 0.69531,-0.18359 0.87891,-0.49609c0.17969,-0.3125 0.17969,-0.69531 0,-1.00781c-0.18359,-0.3125 -0.51953,-0.5 -0.87891,-0.49609h-3v-2h3c0.35938,0.00391 0.69531,-0.18359 0.87891,-0.49609c0.17969,-0.3125 0.17969,-0.69531 0,-1.00781c-0.18359,-0.3125 -0.51953,-0.5 -0.87891,-0.49609h-3v-2h3c0.35938,0.00391 0.69531,-0.18359 0.87891,-0.49609c0.17969,-0.3125 0.17969,-0.69531 0,-1.00781c-0.18359,-0.3125 -0.51953,-0.5 -0.87891,-0.49609h-3v-2h3c0.35938,0.00391 0.69531,-0.18359 0.87891,-0.49609c0.17969,-0.3125 0.17969,-0.69531 0,-1.00781c-0.18359,-0.3125 -0.51953,-0.5 -0.87891,-0.49609h-3v-2h3c0.35938,0.00391 0.69531,-0.18359 0.87891,-0.49609c0.17969,-0.3125 0.17969,-0.69531 0,-1.00781c-0.18359,-0.3125 -0.51953,-0.5 -0.87891,-0.49609h-3v-4c0,-1.65234 -0.73828,-3.01953 -1.875,-3.84375c-1.13672,-0.82422 -2.59375,-1.15625 -4.125,-1.15625zM25,2c1.23047,0 2.26563,0.29688 2.9375,0.78125c0.67188,0.48438 1.0625,1.10938 1.0625,2.21875v4h-8v-4c0,-1.10937 0.39063,-1.73437 1.0625,-2.21875c0.67188,-0.48437 1.70703,-0.78125 2.9375,-0.78125zM21,11h8v2.6875c-0.05859,0.19531 -0.05859,0.39844 0,0.59375v3.25c-0.13281,0.27734 -0.13281,0.59766 0,0.875v3.125c-0.13281,0.27734 -0.13281,0.59766 0,0.875v3.125c-0.13281,0.27734 -0.13281,0.59766 0,0.875v1.8125c0.00391,0.36719 0.20703,0.70313 0.53125,0.875c3.23438,1.65625 5.46875,5.01563 5.46875,8.90625c0,5.53516 -4.46484,10 -10,10c-5.53516,0 -10,-4.46484 -10,-10c0,-3.89062 2.23438,-7.25 5.46875,-8.90625c0.32422,-0.17187 0.52734,-0.50781 0.53125,-0.875z"></path></g></g></svg>